<mxfile host="65bd71144e">
    <diagram id="EXSZoDl5WkqwddQI6l8m" name="第 1 页">
        <mxGraphModel dx="1277" dy="747" grid="1" gridSize="10" guides="1" tooltips="1" connect="1" arrows="1" fold="1" page="1" pageScale="1" pageWidth="827" pageHeight="1169" math="0" shadow="0">
            <root>
                <mxCell id="0"/>
                <mxCell id="1" parent="0"/>
                <mxCell id="3" value="" style="shape=flexArrow;endArrow=classic;html=1;fillColor=#d80073;strokeColor=#A50040;" edge="1" parent="1">
                    <mxGeometry width="50" height="50" relative="1" as="geometry">
                        <mxPoint x="-230" y="410" as="sourcePoint"/>
                        <mxPoint x="-54.16668701171875" y="410" as="targetPoint"/>
                        <Array as="points">
                            <mxPoint x="-200" y="360"/>
                            <mxPoint x="-190" y="410"/>
                            <mxPoint x="-130" y="460"/>
                        </Array>
                    </mxGeometry>
                </mxCell>
                <mxCell id="4" value="" style="rounded=1;whiteSpace=wrap;html=1;" vertex="1" parent="1">
                    <mxGeometry x="-230" y="170" width="120" height="60" as="geometry"/>
                </mxCell>
                <mxCell id="6" value="123&amp;nbsp;" style="rounded=0;whiteSpace=wrap;html=1;" vertex="1" parent="1">
                    <mxGeometry x="-520" y="360" width="120" height="60" as="geometry"/>
                </mxCell>
            </root>
        </mxGraphModel>
    </diagram>
</mxfile>